<?xml version="1.0" standalone="no"?>
<!DOCTYPE svg PUBLIC "-//W3C//DTD SVG 20010904//EN"
 "http://www.w3.org/TR/2001/REC-SVG-20010904/DTD/svg10.dtd">
<svg version="1.0" xmlns="http://www.w3.org/2000/svg"
 width="318.000000pt" height="318.000000pt" viewBox="0 0 318.000000 318.000000"
 preserveAspectRatio="xMidYMid meet">
<metadata>
Created by potrace 1.11, written by Peter Selinger 2001-2013
</metadata>
<g transform="translate(0.000000,318.000000) scale(0.100000,-0.100000)"
fill="#000000" stroke="none">
<path d="M1588 2545 c-2 -1 -34 -5 -73 -9 -76 -6 -119 -13 -150 -23 -11 -4
-24 -8 -30 -9 -5 -1 -41 -14 -79 -28 -227 -86 -416 -261 -522 -483 -67 -139
-87 -231 -88 -393 -1 -178 11 -253 61 -380 122 -311 402 -538 738 -597 54 -10
258 -10 320 0 345 55 643 309 754 644 40 119 46 157 46 303 0 137 -6 182 -34
280 -73 253 -251 466 -493 590 -46 24 -85 43 -88 43 -5 0 -16 3 -60 17 -49 16
-119 30 -182 36 -34 3 -75 7 -90 8 -15 2 -29 2 -30 1z"/>
</g>
</svg>
